<svg xmlns="http://www.w3.org/2000/svg" fill="none" viewBox="0 0 500 500"><defs/><path fill="#31BD60" d="M13 170L88 45l100 60-75 125-100-60zm299-65l100-60 75 125-100 60-75-125zM178 340h144v115H178V340z"/><path fill="#31BD60" fill-rule="evenodd" d="M86 37l110 66-81 135L4 172 86 37zm328 0l82 135-111 66-81-135 110-66zM90 53L21 168l90 54 68-115-89-54zm231 54l68 115 90-54-69-115-89 54zM172 334h156v127H172V334zm12 12v103h132V346H184z" clip-rule="evenodd"/><path fill="#31BD60" fill-rule="evenodd" d="M113 99h280v133l-67 114H174l-67-113 11-6 63 107h138l62-106V111H113V99z" clip-rule="evenodd"/><path fill="#31BD60" d="M219 176h57l29 49-29 49h-57l-29-49 29-49z"/></svg>